<svg width="391" height="448" xmlns="http://www.w3.org/2000/svg" xmlns:xlink="http://www.w3.org/1999/xlink" xml:space="preserve" overflow="hidden"><g transform="translate(-874 -1289)"><rect x="875" y="1290" width="389" height="389" stroke="#000000" stroke-width="2.29167" stroke-linejoin="round" stroke-miterlimit="10" fill="none"/><text fill="#1E1E1E" font-family="Times New Roman,Times New Roman_MSFontService,sans-serif" font-weight="400" font-size="220" transform="matrix(1 0 0 1 1002.1 1562)">T</text><path d="M1258.5 1363.5 1159.88 1470.38 1165 1475.47 1160.89 1479.29C1142.94 1497.1 1129.56 1501.92 1125.92 1502.97L1123.29 1503.61 1123.09 1505.11C1120.21 1522.63 1113.26 1539.24 1102.78 1553.62L1101.5 1555.22 1116.88 1570.5 1118.48 1569.23C1132.95 1558.81 1149.66 1551.9 1167.28 1549.04L1168.89 1548.79 1169.19 1547.19C1169.21 1547.04 1172.11 1532.48 1193.26 1511.42L1197.19 1507.45 1202.37 1512.63 1258.5 1452.41 1258.5 1445.69 1202.25 1506.04 1166.24 1470.24 1258.5 1370.26ZM1189.99 1508.21C1171.65 1526.48 1166.4 1540.23 1165.07 1544.77 1147.88 1547.77 1131.56 1554.47 1117.26 1564.43L1114.04 1561.23 1142.94 1532.5C1146.07 1533.83 1149.7 1532.38 1151.03 1529.27 1152.37 1526.16 1150.92 1522.56 1147.79 1521.23 1144.65 1519.9 1141.03 1521.34 1139.69 1524.46 1139.03 1525.99 1139.03 1527.73 1139.69 1529.27L1110.8 1558 1107.61 1554.83C1117.64 1540.6 1124.39 1524.35 1127.39 1507.24 1133.29 1505.69 1147.15 1499.38 1164.08 1482.57L1168.25 1478.71 1193.94 1504.23Z" stroke="#1E1E1E" stroke-width="3.4375" stroke-miterlimit="8" fill-rule="evenodd"/></g></svg>